<svg width="715" height="785" viewBox="0 0 715 785" fill="none" xmlns="http://www.w3.org/2000/svg">
<path d="M98.98 178.533V15.6952L81.3229 0H0.884766V784.762H81.3229L98.98 769.067V209.924L81.3229 194.229L98.98 178.533ZM53.8562 213.848V741.6H44.0467V213.848H53.8562ZM53.8562 43.1619V174.61H44.0467V43.1619H53.8562Z" fill="white"/>
<path d="M209.222 15.6952L191.565 0H126.822L111.127 15.6952V784.762H154.289V404.152H166.06V784.762H209.222V15.6952ZM164.098 43.1619V362.952H154.289V43.1619H164.098Z" fill="white"/>
<path d="M274.341 0H264.531H221.369V43.1619V578.762V619.962V784.762H264.531V623.886H301.807L319.464 606.229V578.762V43.1619V15.6952L301.807 0H274.341ZM274.341 43.1619V578.762H264.531V43.1619H274.341Z" fill="white"/>
<path d="M386.545 0H343.383H329.649V43.1619H343.383V784.762H386.545V43.1619H402.24V0H386.545Z" fill="white"/>
<path d="M412.08 0V784.762H455.242V0H412.08Z" fill="white"/>
<path d="M564.894 15.6952L547.237 0H519.77H509.961H482.494L466.799 15.6952V43.1619V202.076L482.494 217.771H509.961H511.923H519.77V741.6H509.961V227.581H466.799V741.6V769.067L482.494 784.762H509.961H519.77H547.237L564.894 769.067V741.6V190.305L547.237 174.61H519.77H517.808H509.961V43.1619H519.77V164.8H564.894V43.1619V15.6952Z" fill="white"/>
<path d="M631.974 0H588.812H575.079V43.1619H588.812V784.762H631.974V43.1619H647.67V0H631.974Z" fill="white"/>
<path d="M700.672 43.1619H714.405V0H657.51V784.762H714.405V741.6H700.672V621.924H714.405V578.762H700.672V43.1619Z" fill="white"/>
</svg>
