<svg width="624" height="785" viewBox="0 0 624 785" fill="none" xmlns="http://www.w3.org/2000/svg">
<path d="M0.886719 0.238037V785H81.3248L98.982 769.305V15.9333L81.3248 0.238037H0.886719ZM53.8582 43.4V741.838H44.0486V43.4H53.8582Z" fill="white"/>
<path d="M209.224 0.238037H164.1V741.838H154.291V0.238037H111.129V769.305L126.824 785H191.567L209.224 769.305V0.238037Z" fill="white"/>
<path d="M403.828 0.238037H368.514H358.704H333.2L317.504 17.8952L315.543 741.838H307.695L305.733 17.8952L292 0.238037H264.533H256.685H221.371V785H264.533V463.248L256.685 41.438H266.495L272.381 441.667L278.266 769.305L292 785H303.771H309.657H311.619H321.428H333.2L344.971 769.305L350.857 441.667L356.743 41.438H366.552L358.704 463.248V785H403.828V0.238037Z" fill="white"/>
<path d="M513.396 15.9333L495.739 0.238037H430.996L415.301 15.9333V785H458.463V404.39H470.234V785H513.396V15.9333ZM468.272 43.4V363.19H458.463V43.4H468.272Z" fill="white"/>
<path d="M623.638 15.9333L605.981 0.238037H578.514H568.705H541.238L525.543 15.9333V43.4V202.314L541.238 218.009H568.705H570.667H578.514V741.838H568.705V227.819H525.543V741.838V769.305L541.238 785H568.705H578.514H605.981L623.638 769.305V741.838V190.543L605.981 174.848H578.514H576.552H568.705V43.4H578.514V165.038H623.638V43.4V15.9333Z" fill="white"/>
</svg>
