<svg width="360" height="95" viewBox="0 0 360 95" fill="none" xmlns="http://www.w3.org/2000/svg">
<path d="M87.2013 24.446C87.1793 23.28 86.8933 22.466 86.2993 21.96C85.7273 21.454 85.0233 21.168 84.2093 21.102V21.014C85.7273 20.772 86.7833 19.848 86.7833 17.582V17.318C86.7833 14.546 85.0453 13.6 80.3813 13.6H67.4453V29H80.8653C85.5733 29 87.2013 27.856 87.2013 24.886V24.446ZM80.2053 16.328C82.6473 16.328 83.4613 16.724 83.4613 17.978V18.11C83.4613 19.364 82.6473 19.716 80.2053 19.716H70.7893V16.328H80.2053ZM80.2053 22.466C82.9553 22.466 83.8573 22.73 83.8573 24.292V24.402C83.8573 25.898 83.0213 26.272 80.2493 26.272H70.7893V22.466H80.2053ZM104.467 21.938C104.467 18.44 102.553 17.12 97.867 17.12H97.273C92.587 17.12 90.761 18.308 90.101 20.75H93.291C93.819 19.628 94.831 19.21 97.273 19.21C100.111 19.21 101.409 19.694 101.409 21.696V21.762L93.643 22.026C90.981 22.114 89.551 23.148 89.529 25.348V25.524C89.529 27.878 91.333 29.22 95.293 29.22C98.967 29.22 100.705 28.186 101.321 26.668H101.409V29H104.467V21.938ZM92.631 25.304C92.631 24.336 93.357 23.962 94.963 23.896L101.409 23.654V23.984C101.409 26.096 99.231 27.196 96.217 27.196C93.775 27.196 92.631 26.69 92.631 25.392V25.304ZM107.007 32.74H110.065V26.844H110.153C110.879 28.494 112.683 29.22 115.873 29.22H116.489C120.691 29.22 123.221 27.834 123.221 23.676V22.642C123.221 18.506 120.691 17.12 116.489 17.12H115.873C112.683 17.12 110.879 17.846 110.153 19.496H110.065V17.34H107.007V32.74ZM115.103 19.584C118.447 19.584 120.163 20.09 120.163 22.84V23.5C120.163 26.25 118.447 26.756 115.103 26.756C111.825 26.756 110.065 26.25 110.065 23.5V22.774C110.065 20.09 111.825 19.584 115.103 19.584ZM127.642 19.65V24.534C127.642 27.856 129.05 29 133.01 29H135.034V26.69H133.978C131.69 26.69 130.7 26.382 130.7 24.116V19.65H135.034V17.34H130.7V13.6H127.642V17.34H124.408V19.65H127.642ZM137.084 13.6V15.778H140.164V13.6H137.084ZM137.084 17.34V29H140.164V17.34H137.084ZM150.497 29.22C155.337 29.22 157.823 28.384 157.823 25.436V25.216C157.823 23.038 156.525 22.18 153.115 22.026L148.891 21.872C147.725 21.828 146.933 21.718 146.515 21.564C146.119 21.41 145.921 21.124 145.921 20.706V20.64C145.921 19.672 146.867 19.298 149.947 19.298C152.411 19.298 153.665 19.628 154.171 20.42H157.493C156.613 18.242 154.809 17.12 150.255 17.12H149.969C145.327 17.12 142.863 17.978 142.863 20.728V20.97C142.863 23.104 144.183 24.05 147.593 24.16L151.817 24.314C152.983 24.358 153.775 24.468 154.171 24.622C154.589 24.776 154.787 25.062 154.787 25.48V25.546C154.743 26.646 153.731 27.02 150.343 27.02C147.769 27.02 146.317 26.822 145.723 25.92H142.445C143.105 28.406 145.283 29.22 150.013 29.22H150.497ZM162.146 19.65V24.534C162.146 27.856 163.554 29 167.514 29H169.538V26.69H168.482C166.194 26.69 165.204 26.382 165.204 24.116V19.65H169.538V17.34H165.204V13.6H162.146V17.34H158.912V19.65H162.146ZM183.144 25.524C182.572 26.602 181.56 26.91 178.678 26.91C175.752 26.91 174.08 26.514 174.036 23.852H186.4V22.664C186.4 18.506 183.76 17.12 178.898 17.12H178.348C173.508 17.12 170.978 18.506 170.978 22.664V23.698C170.978 27.834 173.508 29.22 178.348 29.22H179.008C183.672 29.22 185.674 28.01 186.29 25.524H183.144ZM178.678 19.21C181.582 19.21 183.342 19.782 183.342 21.828V21.916H174.058C174.278 19.628 175.906 19.21 178.678 19.21ZM216.126 20.86C216.126 15.58 213.64 13.6 206.49 13.6H195.578V29H206.622C213.75 29 216.126 27.02 216.126 21.74V20.86ZM205.676 16.328C211.572 16.328 212.738 17.626 212.738 21.212V21.432C212.738 25.018 211.572 26.272 205.676 26.272H198.922V16.328H205.676ZM218.657 24.446C218.657 28.34 221.165 29.22 224.377 29.22C227.303 29.22 228.799 28.186 229.481 26.844H229.613V29H232.693V17.34H229.613V23.39C229.613 24.666 229.217 25.546 228.447 26.03C227.677 26.514 226.643 26.756 225.345 26.756C223.343 26.756 221.715 26.382 221.715 23.94V17.34H218.657V24.446ZM259.113 21.894C259.113 18 256.781 17.12 253.591 17.12C250.797 17.12 249.213 18.066 248.509 19.496H248.355C247.959 18.55 247.321 17.934 246.419 17.604C245.539 17.274 244.527 17.12 243.361 17.12C240.655 17.12 239.269 18 238.587 19.43H238.455V17.34H235.375V29H238.455V23.038C238.455 20.398 239.995 19.584 242.371 19.584C244.219 19.584 245.715 19.958 245.715 22.4V29H248.773V23.038C248.773 20.398 250.313 19.584 252.711 19.584C254.515 19.584 256.033 19.958 256.033 22.4V29H259.113V21.894ZM276.127 21.938C276.127 18.44 274.213 17.12 269.527 17.12H268.933C264.247 17.12 262.421 18.308 261.761 20.75H264.951C265.479 19.628 266.491 19.21 268.933 19.21C271.771 19.21 273.069 19.694 273.069 21.696V21.762L265.303 22.026C262.641 22.114 261.211 23.148 261.189 25.348V25.524C261.189 27.878 262.993 29.22 266.953 29.22C270.627 29.22 272.365 28.186 272.981 26.668H273.069V29H276.127V21.938ZM264.291 25.304C264.291 24.336 265.017 23.962 266.623 23.896L273.069 23.654V23.984C273.069 26.096 270.891 27.196 267.877 27.196C265.435 27.196 264.291 26.69 264.291 25.392V25.304ZM286.279 29.22C291.119 29.22 293.605 28.384 293.605 25.436V25.216C293.605 23.038 292.307 22.18 288.897 22.026L284.673 21.872C283.507 21.828 282.715 21.718 282.297 21.564C281.901 21.41 281.703 21.124 281.703 20.706V20.64C281.703 19.672 282.649 19.298 285.729 19.298C288.193 19.298 289.447 19.628 289.953 20.42H293.275C292.395 18.242 290.591 17.12 286.037 17.12H285.751C281.109 17.12 278.645 17.978 278.645 20.728V20.97C278.645 23.104 279.965 24.05 283.375 24.16L287.599 24.314C288.765 24.358 289.557 24.468 289.953 24.622C290.371 24.776 290.569 25.062 290.569 25.48V25.546C290.525 26.646 289.513 27.02 286.125 27.02C283.551 27.02 282.099 26.822 281.505 25.92H278.227C278.887 28.406 281.065 29.22 285.795 29.22H286.279Z" fill="white"/>
<path d="M84.2798 53.808V54.552L85.3358 54.72C86.1758 54.864 86.3438 55.032 86.3438 56.016V69.792C86.3438 70.776 86.1758 70.944 85.3358 71.088L84.2798 71.256V72H91.5038C97.5518 72 102.4 68.304 102.4 62.76C102.4 57.192 97.7678 53.808 91.4798 53.808H84.2798ZM91.0478 71.04C89.3678 71.04 89.0078 70.68 89.0078 69.288V55.32C89.0078 54.864 89.1758 54.768 91.0478 54.768C96.8558 54.768 99.3278 57.816 99.3278 63.384C99.3278 69.024 95.7278 71.04 91.4798 71.04H91.0478ZM107.231 55.944C108.143 55.944 108.887 55.224 108.887 54.264C108.887 53.352 108.143 52.608 107.231 52.608C106.271 52.608 105.551 53.352 105.551 54.264C105.551 55.224 106.271 55.944 107.231 55.944ZM108.623 59.664L104.567 60.216V60.864L105.311 61.032C106.151 61.224 106.295 61.392 106.295 61.896V70.296C106.295 70.824 106.151 70.968 105.311 71.16L104.567 71.328V72H110.351V71.328L109.607 71.16C108.767 70.968 108.623 70.824 108.623 70.296V59.664ZM117.776 68.328C120.584 68.328 122.696 66.552 122.696 63.936C122.696 62.784 122.288 61.8 121.568 61.056L124.424 61.2C125.072 61.224 125.264 61.128 125.264 60.72V58.824L121.232 60.744C120.368 60 119.144 59.568 117.776 59.568C114.992 59.568 112.856 61.368 112.856 63.936C112.856 65.784 113.936 67.224 115.544 67.896C113.384 68.256 111.944 69.312 111.944 70.608C111.944 71.928 113.024 72.672 114.56 72.84C113.192 73.248 111.944 74.16 111.944 75.36C111.944 77.352 114.584 78.408 117.752 78.408C121.52 78.408 124.952 76.704 124.952 73.848C124.952 71.472 123.152 70.632 119.312 70.704L115.76 70.776C114.416 70.8 113.912 70.344 113.912 69.648C113.912 68.904 114.968 68.328 116.168 68.112C116.672 68.256 117.2 68.328 117.776 68.328ZM117.776 67.416C116.12 67.416 115.28 65.952 115.28 63.936C115.28 61.944 116.12 60.504 117.776 60.504C119.504 60.504 120.32 61.944 120.32 63.936C120.32 65.952 119.504 67.416 117.776 67.416ZM114.056 74.88C114.056 74.16 114.272 73.416 115.16 72.888C115.304 72.888 115.448 72.888 115.592 72.888L119.36 72.816C121.832 72.768 122.936 73.344 122.936 74.712C122.936 76.752 120.008 77.448 118.088 77.448C115.688 77.448 114.056 76.656 114.056 74.88ZM129.122 55.944C130.034 55.944 130.778 55.224 130.778 54.264C130.778 53.352 130.034 52.608 129.122 52.608C128.162 52.608 127.442 53.352 127.442 54.264C127.442 55.224 128.162 55.944 129.122 55.944ZM130.514 59.664L126.458 60.216V60.864L127.202 61.032C128.042 61.224 128.186 61.392 128.186 61.896V70.296C128.186 70.824 128.042 70.968 127.202 71.16L126.458 71.328V72H132.242V71.328L131.498 71.16C130.658 70.968 130.514 70.824 130.514 70.296V59.664ZM138.803 72.288C140.459 72.288 141.899 71.472 142.739 69.96L142.115 69.552C141.515 70.536 140.651 71.016 139.763 71.016C138.587 71.016 137.843 70.296 137.843 68.904V61.248H142.139V59.952H137.843V56.592H137.099C136.667 58.968 135.539 60.36 133.307 60.528V61.248H135.515V69.12C135.515 71.28 136.907 72.288 138.803 72.288ZM156.399 70.584L156.015 70.248C155.583 70.704 155.175 70.944 154.791 70.944C153.951 70.944 153.735 70.08 153.759 68.856L153.855 63.888C153.927 60.408 152.343 59.568 149.415 59.568C146.871 59.568 144.471 60.768 144.471 62.4C144.471 63.096 144.927 63.744 145.743 63.744C146.583 63.744 147.087 63.144 147.087 62.352C147.087 61.824 146.823 61.392 146.823 61.08C146.823 60.72 147.687 60.408 148.863 60.408C150.687 60.408 151.575 61.368 151.527 63.72L151.503 64.776C148.023 65.088 143.847 66 143.847 69C143.847 70.896 145.431 72.288 147.711 72.288C149.655 72.288 150.999 71.376 151.503 69.432V70.08C151.503 71.544 152.535 72.288 153.687 72.288C154.623 72.288 155.655 71.904 156.399 70.584ZM146.535 68.736C146.535 66.696 148.455 65.784 151.527 65.376L151.479 67.776C151.431 70.152 149.943 71.064 148.695 71.064C147.447 71.064 146.535 70.152 146.535 68.736ZM157.038 72H162.822V71.328L162.078 71.16C161.238 70.968 161.094 70.824 161.094 70.296V52.944L157.038 53.496V54.168L157.782 54.312C158.622 54.48 158.766 54.672 158.766 55.2V70.296C158.766 70.824 158.622 70.968 157.782 71.16L157.038 71.328V72ZM171.467 53.808V54.552L172.523 54.72C173.363 54.864 173.531 55.032 173.531 56.016V69.792C173.531 70.776 173.363 70.944 172.523 71.088L171.467 71.256V72H178.691C184.739 72 189.587 68.304 189.587 62.76C189.587 57.192 184.955 53.808 178.667 53.808H171.467ZM178.235 71.04C176.555 71.04 176.195 70.68 176.195 69.288V55.32C176.195 54.864 176.363 54.768 178.235 54.768C184.043 54.768 186.515 57.816 186.515 63.384C186.515 69.024 182.915 71.04 178.667 71.04H178.235ZM197.923 72.288C201.067 72.288 203.155 70.68 203.827 67.488H203.011C202.291 70.056 200.491 70.68 198.811 70.68C196.003 70.68 194.203 68.544 194.203 64.968V64.824H203.635C203.107 61.416 200.779 59.568 197.779 59.568C194.779 59.568 191.755 61.968 191.755 65.976C191.755 69.6 194.155 72.288 197.923 72.288ZM197.731 60.456C199.435 60.456 200.779 61.392 200.947 63.816H194.299C194.635 61.608 196.027 60.456 197.731 60.456ZM209.754 72.288C212.25 72.288 214.458 71.04 214.458 68.592C214.458 66.6 213.426 65.616 211.194 64.8L209.898 64.32C208.794 63.912 208.122 63.264 208.122 62.256C208.122 61.128 209.13 60.384 210.234 60.384C211.314 60.384 212.202 60.84 212.658 62.088L213.21 63.576H214.026L213.522 60C212.73 59.76 211.794 59.568 210.762 59.568C208.386 59.568 206.106 60.696 206.106 62.976C206.106 64.848 207.474 66 209.034 66.576L210.354 67.056C211.674 67.536 212.322 68.4 212.322 69.36C212.322 70.704 211.338 71.448 210.066 71.448C208.818 71.448 207.714 71.04 207.234 69.384L206.754 67.728H205.962L206.25 71.52C207.066 72 208.41 72.288 209.754 72.288ZM219.286 55.944C220.198 55.944 220.942 55.224 220.942 54.264C220.942 53.352 220.198 52.608 219.286 52.608C218.326 52.608 217.606 53.352 217.606 54.264C217.606 55.224 218.326 55.944 219.286 55.944ZM220.678 59.664L216.622 60.216V60.864L217.366 61.032C218.206 61.224 218.35 61.392 218.35 61.896V70.296C218.35 70.824 218.206 70.968 217.366 71.16L216.622 71.328V72H222.406V71.328L221.662 71.16C220.822 70.968 220.678 70.824 220.678 70.296V59.664ZM229.831 68.328C232.639 68.328 234.751 66.552 234.751 63.936C234.751 62.784 234.343 61.8 233.623 61.056L236.479 61.2C237.127 61.224 237.319 61.128 237.319 60.72V58.824L233.287 60.744C232.423 60 231.199 59.568 229.831 59.568C227.047 59.568 224.911 61.368 224.911 63.936C224.911 65.784 225.991 67.224 227.599 67.896C225.439 68.256 223.999 69.312 223.999 70.608C223.999 71.928 225.079 72.672 226.615 72.84C225.247 73.248 223.999 74.16 223.999 75.36C223.999 77.352 226.639 78.408 229.807 78.408C233.575 78.408 237.007 76.704 237.007 73.848C237.007 71.472 235.207 70.632 231.367 70.704L227.815 70.776C226.471 70.8 225.967 70.344 225.967 69.648C225.967 68.904 227.023 68.328 228.223 68.112C228.727 68.256 229.255 68.328 229.831 68.328ZM229.831 67.416C228.175 67.416 227.335 65.952 227.335 63.936C227.335 61.944 228.175 60.504 229.831 60.504C231.559 60.504 232.375 61.944 232.375 63.936C232.375 65.952 231.559 67.416 229.831 67.416ZM226.111 74.88C226.111 74.16 226.327 73.416 227.215 72.888C227.359 72.888 227.503 72.888 227.647 72.888L231.415 72.816C233.887 72.768 234.991 73.344 234.991 74.712C234.991 76.752 232.063 77.448 230.143 77.448C227.743 77.448 226.111 76.656 226.111 74.88ZM238.416 72H244.2V71.328L243.456 71.16C242.616 70.968 242.472 70.824 242.472 70.296V64.992C242.472 62.184 243.84 61.056 245.352 61.056C247.008 61.056 247.92 61.944 247.92 64.8V70.296C247.92 70.824 247.776 70.968 246.936 71.16L246.192 71.328V72H252V71.328L251.256 71.16C250.416 70.968 250.272 70.824 250.272 70.296V64.296C250.272 60.84 248.856 59.568 246.504 59.568C244.392 59.568 243.096 60.672 242.472 62.712V59.664L238.416 60.216V60.864L239.16 61.032C240 61.224 240.144 61.392 240.144 61.896V70.296C240.144 70.824 240 70.968 239.16 71.16L238.416 71.328V72ZM259.821 72.288C262.965 72.288 265.053 70.68 265.725 67.488H264.909C264.189 70.056 262.389 70.68 260.709 70.68C257.901 70.68 256.101 68.544 256.101 64.968V64.824H265.533C265.005 61.416 262.677 59.568 259.677 59.568C256.677 59.568 253.653 61.968 253.653 65.976C253.653 69.6 256.053 72.288 259.821 72.288ZM259.629 60.456C261.333 60.456 262.677 61.392 262.845 63.816H256.197C256.533 61.608 257.925 60.456 259.629 60.456ZM267.573 72H273.837V71.28L272.613 71.112C271.773 70.992 271.629 70.824 271.629 70.296V64.104C271.629 62.616 272.541 61.512 273.309 61.512C274.269 61.512 274.557 62.52 275.565 62.52C276.309 62.52 276.933 61.968 276.933 61.128C276.933 60.12 276.141 59.64 275.181 59.64C273.885 59.64 272.229 60.576 271.629 62.664V59.664L267.573 60.216V60.864L268.317 61.032C269.157 61.224 269.301 61.392 269.301 61.896V70.296C269.301 70.824 269.157 70.968 268.317 71.16L267.573 71.328V72Z" fill="white"/>
<path d="M41.4819 22.316C42.0606 21.98 42.4899 21.812 42.7699 21.812C43.2179 21.812 43.4793 21.9707 43.5539 22.288C43.6286 22.6053 43.5726 23.0347 43.3859 23.576C43.2179 24.0987 42.9473 24.7147 42.5739 25.424C42.2006 26.1333 41.7899 26.88 41.3419 27.664L41.3699 27.636C41.2766 27.8413 41.1646 28.0467 41.0339 28.252C40.9219 28.4387 40.8193 28.6347 40.7259 28.84C40.2966 29.624 39.9046 30.3613 39.5499 31.052C39.2139 31.7427 38.9526 32.312 38.7659 32.76C38.6913 32.9467 38.6446 33.0773 38.6259 33.152C38.5139 33.0587 38.3273 33.1427 38.0659 33.404C38.0659 34.02 38.0473 34.468 38.0099 34.748C37.9913 35.028 37.9353 35.2707 37.8419 35.476L37.4779 35.84C37.1606 36.064 36.7686 36.148 36.3019 36.092C35.8539 36.0173 35.4713 35.8027 35.1539 35.448V35.476C34.8926 35.196 34.7153 34.888 34.6219 34.552C34.5473 34.1973 34.5379 33.852 34.5939 33.516C34.7433 32.8253 35.0699 32.284 35.5739 31.892C35.8166 31.724 36.0406 31.4907 36.2459 31.192C36.4699 30.8747 36.7126 30.5013 36.9739 30.072C37.2726 29.5867 37.5713 29.0733 37.8699 28.532C38.1873 27.9907 38.5046 27.4493 38.8219 26.908C39.1393 26.3667 39.4286 25.844 39.6899 25.34C39.9699 24.8173 40.2219 24.3507 40.4459 23.94C40.6886 23.4547 40.9313 23.0067 41.1739 22.596L41.4819 22.316ZM37.3099 22.316C37.8886 21.98 38.3179 21.812 38.5979 21.812C39.0459 21.812 39.3073 21.9707 39.3819 22.288C39.4566 22.6053 39.4006 23.0347 39.2139 23.576C39.0459 24.0987 38.7753 24.7147 38.4019 25.424C38.0286 26.1333 37.6179 26.88 37.1699 27.664L37.1979 27.636C37.1046 27.8413 36.9926 28.0467 36.8619 28.252C36.7499 28.4387 36.6473 28.6347 36.5539 28.84C36.1246 29.624 35.7326 30.3613 35.3779 31.052C35.0419 31.7427 34.7806 32.312 34.5939 32.76C34.5193 32.9467 34.4726 33.0773 34.4539 33.152C34.3419 33.0587 34.1553 33.1427 33.8939 33.404C33.8939 34.02 33.8753 34.468 33.8379 34.748C33.8193 35.028 33.7633 35.2707 33.6699 35.476L33.3059 35.84C32.9886 36.064 32.5966 36.148 32.1299 36.092C31.6819 36.0173 31.2993 35.8027 30.9819 35.448V35.476C30.7206 35.196 30.5433 34.888 30.4499 34.552C30.3753 34.1973 30.3659 33.852 30.4219 33.516C30.5713 32.8253 30.8979 32.284 31.4019 31.892C31.6446 31.724 31.8686 31.4907 32.0739 31.192C32.2979 30.8747 32.5406 30.5013 32.8019 30.072C33.1006 29.5867 33.3993 29.0733 33.6979 28.532C34.0153 27.9907 34.3326 27.4493 34.6499 26.908C34.9673 26.3667 35.2566 25.844 35.5179 25.34C35.7979 24.8173 36.0499 24.3507 36.2739 23.94C36.5166 23.4547 36.7593 23.0067 37.0019 22.596L37.3099 22.316ZM34.1459 34.104C34.1646 33.9733 34.2019 33.8333 34.2579 33.684C34.3139 33.516 34.3793 33.3387 34.4539 33.152C34.5473 33.2267 34.5566 33.4133 34.4819 33.712C34.4073 33.992 34.2299 34.3467 33.9499 34.776C33.9873 34.7013 34.0153 34.608 34.0339 34.496C34.0713 34.384 34.1086 34.2533 34.1459 34.104ZM38.3179 34.104C38.3366 33.9733 38.3739 33.8333 38.4299 33.684C38.4859 33.516 38.5513 33.3387 38.6259 33.152C38.7193 33.2267 38.7286 33.4133 38.6539 33.712C38.5793 33.992 38.4019 34.3467 38.1219 34.776C38.1593 34.7013 38.1873 34.608 38.2059 34.496C38.2433 34.384 38.2806 34.2533 38.3179 34.104ZM38.0939 34.804C38.0939 34.8413 38.0753 34.8787 38.0379 34.916C38.0379 34.916 38.0566 34.8787 38.0939 34.804ZM33.9219 34.804C33.9219 34.8413 33.9033 34.8787 33.8659 34.916C33.8659 34.916 33.8846 34.8787 33.9219 34.804ZM33.9219 34.804C33.9219 34.7853 33.9313 34.776 33.9499 34.776C33.9313 34.7947 33.9219 34.804 33.9219 34.804ZM38.0939 34.804C38.0939 34.7853 38.1033 34.776 38.1219 34.776C38.1033 34.7947 38.0939 34.804 38.0939 34.804ZM76.8814 51.072C76.9 51.072 76.9094 51.0627 76.9094 51.044C76.928 51.0253 76.956 51.0067 76.9934 50.988L76.8254 51.072C76.6387 50.9973 76.4334 50.9133 76.2094 50.82C76.004 50.7267 75.8267 50.6053 75.6774 50.456C75.528 50.3067 75.4534 50.1293 75.4534 49.924C75.472 49.7187 75.612 49.4573 75.8734 49.14C76.1347 48.8413 76.564 48.4867 77.1614 48.076C77.7587 47.6467 78.5894 47.152 79.6534 46.592L79.6254 46.62C80.0547 46.3587 80.5587 46.0413 81.1374 45.668C81.716 45.2947 82.2574 44.9213 82.7614 44.548C83.2094 44.1747 83.6574 43.7733 84.1054 43.344C84.572 42.896 84.9454 42.4107 85.2254 41.888H85.1974C85.3467 41.6267 85.4587 41.3747 85.5334 41.132C85.608 40.8707 85.636 40.6093 85.6174 40.348C85.58 39.9747 85.384 39.6853 85.0294 39.48C84.7494 39.3307 84.4507 39.228 84.1334 39.172C83.816 39.0973 83.4894 39.0413 83.1534 39.004H82.9854C82.836 38.9853 82.6867 38.976 82.5374 38.976C82.4067 38.9573 82.276 38.948 82.1454 38.948C81.9587 38.948 81.7347 38.9573 81.4734 38.976C81.212 38.976 80.96 38.9947 80.7174 39.032C79.84 39.1253 78.9254 39.2653 77.9734 39.452C77.04 39.62 76.172 39.816 75.3694 40.04C75.3694 40.0587 75.36 40.068 75.3414 40.068C75.3227 40.068 75.304 40.0773 75.2854 40.096C75.2854 40.096 75.2667 40.096 75.2294 40.096C75.0987 40.1333 74.9867 40.1613 74.8934 40.18C74.8187 40.18 74.7627 40.1893 74.7254 40.208C73.1574 40.6 72.0747 40.7773 71.4774 40.74C70.8987 40.684 70.656 40.46 70.7494 40.068C70.8427 39.6573 71.1974 39.1067 71.8134 38.416C72.448 37.7253 73.1854 36.932 74.0254 36.036L75.1174 34.888C76.4614 33.376 77.8614 31.78 79.3174 30.1C80.7734 28.42 82.2107 26.7027 83.6294 24.948C84.3574 24.052 85.0854 23.1467 85.8134 22.232C86.56 21.3173 87.2974 20.3653 88.0254 19.376C88.7347 18.3867 89.444 17.3787 90.1534 16.352C90.8814 15.3067 91.5347 14.2707 92.1134 13.244H92.0854C92.4587 12.572 92.776 11.928 93.0374 11.312C93.3174 10.6773 93.504 10.108 93.5974 9.604V9.66C93.616 9.436 93.6347 9.324 93.6534 9.324V9.296L93.7374 9.324C93.7374 9.324 93.7187 9.31466 93.6814 9.296L93.5974 9.268L93.2334 9.212L92.7294 9.1L92.7854 9.128C92.58 9.09066 92.384 9.072 92.1974 9.072C92.0107 9.05333 91.852 9.044 91.7214 9.044C91.46 9.044 91.1614 9.06267 90.8254 9.1C90.508 9.13733 90.2 9.184 89.9014 9.24C89.4347 9.33333 88.9774 9.436 88.5294 9.548C88.1 9.66 87.6707 9.79066 87.2414 9.94C86.42 10.2573 85.608 10.6027 84.8054 10.976C84.0027 11.3493 83.2467 11.7227 82.5374 12.096H82.5654C81.7627 12.5253 80.9974 12.964 80.2694 13.412C79.5414 13.86 78.8414 14.308 78.1694 14.756C77.404 15.26 76.6107 15.8013 75.7894 16.38C74.9867 16.9587 74.1374 17.5933 73.2414 18.284C72.3454 18.956 71.4027 19.6933 70.4134 20.496C69.4427 21.2987 68.4067 22.1853 67.3054 23.156C65.1214 25.0413 62.5454 27.4307 59.5774 30.324C56.628 33.2173 53.3427 36.6333 49.7214 40.572V40.544C48.8067 41.552 47.9014 42.5693 47.0054 43.596C46.128 44.6227 45.288 45.612 44.4854 46.564C44.0934 47.0493 43.72 47.516 43.3654 47.964C43.328 48.02 43.2814 48.076 43.2254 48.132C43.1694 48.188 43.1227 48.244 43.0854 48.3L42.8614 48.608C42.824 48.6827 42.7587 48.7667 42.6654 48.86C42.572 48.9533 42.4227 49.056 42.2174 49.168L41.9374 49.448H41.7414C41.6107 49.5227 41.4707 49.5973 41.3214 49.672C41.172 49.7653 40.9947 49.8587 40.7894 49.952L41.0414 49.42H40.8734C40.836 49.42 40.808 49.4107 40.7894 49.392C40.584 49.2613 40.4254 49.1493 40.3134 49.056C40.2014 48.9627 40.1267 48.8787 40.0894 48.804C40.0334 48.7107 40.0054 48.6267 40.0054 48.552C40.0054 48.4587 40.0054 48.356 40.0054 48.244V48.104C40.0054 47.9547 40.0147 47.852 40.0334 47.796C40.052 47.7213 40.0987 47.628 40.1734 47.516H40.1454C40.164 47.404 40.2014 47.32 40.2574 47.264C40.2947 47.208 40.332 47.152 40.3694 47.096L40.8174 46.2L40.9014 46.34C40.9387 46.3027 40.976 46.228 41.0134 46.116L40.9854 46.144C41.0227 46.088 41.06 46.0413 41.0974 46.004C41.116 45.9667 41.144 45.9013 41.1814 45.808C41.2 45.7707 41.2187 45.7333 41.2374 45.696C41.256 45.6587 41.284 45.6213 41.3214 45.584C41.4707 45.3227 41.6107 45.08 41.7414 44.856C41.8534 44.632 41.984 44.3893 42.1334 44.128L42.1054 44.156C43.1694 42.084 44.14 40.1147 45.0174 38.248C45.9134 36.3813 46.7534 34.58 47.5374 32.844C48.8254 29.9693 50.0387 27.2253 51.1774 24.612C52.316 21.98 53.3054 19.684 54.1454 17.724C54.2574 17.4627 54.36 17.22 54.4534 16.996C54.5654 16.772 54.668 16.548 54.7614 16.324C55.284 15.092 55.788 13.9067 56.2734 12.768C56.7587 11.6107 57.2067 10.5467 57.6174 9.576C58.028 8.60533 58.3827 7.74666 58.6814 7C58.9987 6.25333 59.2507 5.656 59.4374 5.208C59.5307 5.00266 59.6054 4.82533 59.6614 4.676C59.736 4.508 59.8014 4.34933 59.8574 4.2C59.932 4.032 59.9974 3.87333 60.0534 3.724C60.128 3.57466 60.184 3.45333 60.2214 3.36V3.388C60.4454 2.884 60.6974 2.42666 60.9774 2.016C61.276 1.58666 61.5747 1.232 61.8734 0.951998C62.172 0.65333 62.4707 0.447998 62.7694 0.335999C63.068 0.205331 63.3387 0.17733 63.5814 0.251998C64.104 0.513331 64.3654 1.036 64.3654 1.82C64.3654 2.212 64.3 2.67867 64.1694 3.22C64.0387 3.74266 63.852 4.29333 63.6094 4.872C63.516 5.096 63.404 5.33866 63.2734 5.6C63.1614 5.86133 63.0027 6.216 62.7974 6.664C62.648 6.98133 62.4707 7.364 62.2654 7.812C62.0787 8.26 61.8454 8.80133 61.5654 9.436C61.2854 10.052 60.9587 10.7707 60.5854 11.592C60.212 12.4133 59.792 13.356 59.3254 14.42C59.2134 14.6627 59.1014 14.9147 58.9894 15.176C58.896 15.4187 58.784 15.6707 58.6534 15.932V15.904C58.56 16.1093 58.4574 16.3333 58.3454 16.576C58.252 16.8 58.1494 17.024 58.0374 17.248V17.22C57.8507 17.6493 57.6454 18.0973 57.4214 18.564C57.216 19.012 57.0014 19.488 56.7774 19.992C56.124 21.4667 55.396 23.0907 54.5934 24.864C53.8094 26.6187 52.9694 28.4667 52.0734 30.408C51.924 30.7067 51.784 30.996 51.6534 31.276C51.5227 31.556 51.3827 31.8547 51.2334 32.172C51.1214 32.4147 50.9907 32.6947 50.8414 33.012C50.692 33.3293 50.552 33.6187 50.4214 33.88V33.852C49.8427 35.0653 49.264 36.3067 48.6854 37.576C52.4934 33.5253 56.068 29.9133 59.4094 26.74C62.7507 23.5667 65.672 20.9253 68.1734 18.816C69.4987 17.696 70.74 16.6787 71.8974 15.764C73.0734 14.8307 74.184 13.9813 75.2294 13.216C76.2934 12.4507 77.3107 11.7507 78.2814 11.116C79.252 10.4813 80.204 9.884 81.1374 9.324C82.0334 8.80133 82.9947 8.29733 84.0214 7.812C85.048 7.32666 85.9907 6.92533 86.8494 6.608C87.3347 6.42133 87.8667 6.26267 88.4454 6.132C89.024 5.98267 89.584 5.87067 90.1254 5.796C90.3867 5.75866 90.6574 5.73066 90.9374 5.712C91.2174 5.69333 91.544 5.684 91.9174 5.684C92.2347 5.684 92.5707 5.70267 92.9254 5.74C93.28 5.75867 93.6347 5.81467 93.9894 5.908L93.9614 5.88C94.1294 5.91733 94.316 5.97333 94.5214 6.048C94.7454 6.104 94.9694 6.188 95.1934 6.3C95.4174 6.412 95.6414 6.56133 95.8654 6.748C96.0894 6.916 96.2947 7.13066 96.4814 7.392C96.6867 7.70933 96.8267 8.04533 96.9014 8.4C96.976 8.75466 97.0134 9.09066 97.0134 9.408C97.0134 9.59467 97.004 9.76267 96.9854 9.912C96.9854 10.0427 96.976 10.1733 96.9574 10.304C96.808 11.0693 96.5747 11.816 96.2574 12.544C95.94 13.2533 95.5854 13.972 95.1934 14.7C94.3907 16.1373 93.4854 17.5747 92.4774 19.012C91.4694 20.4493 90.34 21.9427 89.0894 23.492C87.372 25.6013 85.7667 27.5053 84.2734 29.204C82.78 30.9027 81.3894 32.4613 80.1014 33.88C79.6347 34.3653 79.1774 34.8507 78.7294 35.336C78.2814 35.8027 77.8427 36.2507 77.4134 36.68C77.6374 36.6427 77.8614 36.6053 78.0854 36.568C78.3094 36.5307 78.5334 36.4933 78.7574 36.456C79.448 36.3627 80.1387 36.288 80.8294 36.232C81.5387 36.176 82.2667 36.1667 83.0134 36.204C83.4054 36.2413 83.7974 36.288 84.1894 36.344C84.5814 36.3813 84.9734 36.4747 85.3654 36.624C85.7574 36.7733 86.1587 36.988 86.5694 37.268C86.9987 37.5293 87.372 37.8747 87.6894 38.304C87.988 38.752 88.184 39.256 88.2774 39.816C88.3707 40.3573 88.3894 40.8613 88.3334 41.328C88.2774 41.7013 88.1747 42.0653 88.0254 42.42C87.876 42.7747 87.6987 43.12 87.4934 43.456C89.4347 42.56 91.1147 41.748 92.5334 41.02C93.9707 40.292 95.212 39.6573 96.2574 39.116C97.7694 38.2947 99.0387 37.604 100.065 37.044C101.111 36.484 101.979 36.008 102.669 35.616C102.744 35.5787 102.819 35.532 102.893 35.476C102.968 35.42 103.052 35.3733 103.145 35.336L103.117 35.364C103.379 35.2147 103.64 35.0653 103.901 34.916C104.163 34.7667 104.424 34.6173 104.685 34.468C105.32 34.0947 105.917 33.8147 106.477 33.628C107.056 33.4413 107.56 33.348 107.989 33.348C108.531 33.348 108.941 33.5067 109.221 33.824L109.333 33.992C109.445 34.216 109.455 34.4773 109.361 34.776C109.287 35.0747 109.119 35.392 108.857 35.728C108.615 36.064 108.288 36.4093 107.877 36.764C107.467 37.1 107.009 37.4173 106.505 37.716C106.319 37.8093 106.16 37.8933 106.029 37.968C105.899 38.0427 105.731 38.1267 105.525 38.22C105.357 38.2947 105.161 38.388 104.937 38.5C104.713 38.612 104.415 38.7613 104.041 38.948C103.687 39.1347 103.248 39.3587 102.725 39.62C102.203 39.8813 101.568 40.1987 100.821 40.572C99.608 41.1693 98.04 41.9347 96.1174 42.868C94.1947 43.7827 91.7867 44.8747 88.8934 46.144C87.4934 46.76 85.888 47.4507 84.0774 48.216C82.2667 48.9813 80.3907 49.756 78.4494 50.54C78.356 50.5773 78.244 50.6147 78.1134 50.652C77.9827 50.708 77.8427 50.7547 77.6934 50.792L77.1334 51.016C77.096 51.016 77.0587 51.0253 77.0214 51.044C77.0027 51.044 76.9934 51.044 76.9934 51.044C76.9934 51.0627 76.984 51.072 76.9654 51.072C76.9467 51.0907 76.928 51.1 76.9094 51.1L76.8814 51.072ZM76.7134 51.128L76.8254 51.072H76.8814C76.844 51.1093 76.788 51.128 76.7134 51.128ZM40.2014 47.404C40.2014 47.4227 40.2014 47.4413 40.2014 47.46C40.1827 47.46 40.1734 47.4693 40.1734 47.488C40.1734 47.4507 40.1827 47.4227 40.2014 47.404ZM105.903 33.684C106.369 33.3107 106.864 33.124 107.387 33.124C107.648 33.124 107.9 33.18 108.143 33.292C108.404 33.404 108.628 33.5627 108.815 33.768C109.113 34.16 109.207 34.6267 109.095 35.168C109.001 35.6907 108.721 36.1573 108.255 36.568C108.199 36.5867 108.152 36.6147 108.115 36.652C108.077 36.6893 108.04 36.7173 108.003 36.736C107.984 36.7547 107.956 36.7733 107.919 36.792C107.825 36.848 107.676 36.9507 107.471 37.1C107.265 37.2493 106.976 37.4733 106.603 37.772L106.631 37.744C106.276 38.0427 105.837 38.4347 105.315 38.92C104.811 39.3867 104.204 39.9747 103.495 40.684L103.383 40.796H103.41C103.075 41.1693 102.711 41.5893 102.319 42.056C101.945 42.504 101.581 42.9707 101.226 43.456V43.428C100.909 43.8947 100.573 44.4267 100.218 45.024C99.8638 45.6027 99.5465 46.2653 99.2665 47.012C99.6958 46.8067 100.153 46.5547 100.639 46.256C101.124 45.9573 101.619 45.6493 102.123 45.332C103.28 44.604 104.484 43.8013 105.735 42.924C105.772 42.8867 105.8 42.868 105.819 42.868C105.856 42.8493 105.893 42.8213 105.931 42.784C106.211 42.56 106.481 42.364 106.743 42.196L107.247 41.832C107.284 41.7947 107.331 41.7573 107.387 41.72C107.443 41.664 107.489 41.6173 107.527 41.58L108.059 41.524L109.319 41.552L109.767 41.888C109.804 41.9067 109.823 41.9253 109.823 41.944C109.841 41.9627 109.869 41.9813 109.907 42C109.963 42.0373 110.047 42.0933 110.159 42.168C110.289 42.224 110.551 42.364 110.943 42.588C111.353 42.7933 111.969 43.1107 112.791 43.54C113.631 43.9507 114.797 44.5293 116.291 45.276C116.776 45.4813 117.289 45.6867 117.831 45.892C118.372 46.0787 118.932 46.2653 119.511 46.452C120.033 46.6013 120.649 46.7507 121.359 46.9C122.068 47.0493 122.871 47.1707 123.767 47.264C123.935 47.2827 124.131 47.292 124.355 47.292C124.579 47.292 124.784 47.292 124.971 47.292C125.232 47.292 125.54 47.2827 125.895 47.264C126.249 47.2453 126.613 47.208 126.987 47.152C127.584 47.0587 128.237 46.9093 128.947 46.704C129.675 46.4987 130.403 46.2187 131.13 45.864C132.811 45.08 134.276 44.2773 135.527 43.456C136.796 42.6347 137.925 41.8693 138.915 41.16C139.923 40.432 140.809 39.7507 141.575 39.116C142.359 38.4813 143.021 37.9213 143.563 37.436C144.291 36.7827 144.916 36.1853 145.439 35.644C145.98 35.1027 146.381 34.7013 146.643 34.44L146.867 34.244C147.091 34.02 147.343 33.852 147.623 33.74C147.921 33.6093 148.211 33.544 148.491 33.544C148.696 33.544 148.892 33.5813 149.079 33.656C149.284 33.712 149.471 33.8147 149.639 33.964C150.012 34.2813 150.199 34.7013 150.199 35.224C150.199 35.504 150.133 35.7933 150.003 36.092C149.872 36.3907 149.676 36.6707 149.415 36.932C149.34 36.988 149.256 37.0627 149.163 37.156C149.069 37.2307 148.92 37.352 148.715 37.52C148.528 37.688 148.276 37.9027 147.959 38.164C147.641 38.4253 147.221 38.7707 146.699 39.2C146.195 39.6293 145.532 40.1613 144.711 40.796C143.889 41.412 142.947 42.1027 141.883 42.868C141.36 43.2413 140.744 43.652 140.035 44.1C139.344 44.548 138.588 45.0147 137.767 45.5C136.945 45.9853 136.068 46.48 135.135 46.984C134.22 47.4693 133.277 47.936 132.307 48.384C131.317 48.832 130.328 49.1867 129.339 49.448C128.349 49.7093 127.453 49.8773 126.651 49.952C126.389 49.9893 126.091 50.008 125.755 50.008C125.437 50.0267 125.148 50.036 124.887 50.036C124.457 50.036 124.019 50.0173 123.571 49.98C123.123 49.9613 122.721 49.9333 122.367 49.896C121.321 49.784 120.332 49.6253 119.399 49.42C118.465 49.2333 117.644 49.0373 116.935 48.832C116.225 48.6267 115.544 48.412 114.891 48.188C114.237 47.964 113.528 47.6933 112.763 47.376C112.389 47.208 111.988 47.0213 111.559 46.816C111.148 46.6107 110.719 46.3773 110.271 46.116L110.299 46.144C110.261 46.1253 110.233 46.116 110.215 46.116C110.215 46.0973 110.196 46.0787 110.159 46.06C109.953 45.948 109.729 45.8267 109.487 45.696C109.244 45.5653 109.011 45.4253 108.787 45.276C108.693 45.22 108.637 45.192 108.619 45.192C108.619 45.1733 108.563 45.1267 108.451 45.052C107.144 45.8733 105.94 46.6013 104.839 47.236C103.737 47.852 102.748 48.384 101.871 48.832C101.478 49.0373 101.04 49.2427 100.554 49.448C100.069 49.6533 99.5745 49.8307 99.0705 49.98C98.8838 50.036 98.6878 50.0733 98.4825 50.092C98.2772 50.1107 98.0625 50.12 97.8385 50.12C97.5958 50.0827 97.3345 49.9893 97.0545 49.84C96.8118 49.7093 96.6158 49.532 96.4665 49.308C96.3172 49.1027 96.2238 48.8693 96.1865 48.608L96.2145 48.664C96.1772 48.44 96.1678 48.2253 96.1865 48.02C96.2052 47.8147 96.2332 47.6 96.2705 47.376L96.2425 47.404C96.2612 47.3107 96.2985 47.18 96.3545 47.012C96.3918 46.8253 96.4385 46.648 96.4945 46.48V46.508C96.7745 45.5747 97.1105 44.7627 97.5025 44.072C97.8758 43.3627 98.2398 42.728 98.5945 42.168C98.9678 41.608 99.3225 41.104 99.6585 40.656C99.9945 40.1893 100.321 39.7693 100.639 39.396C101.18 38.724 101.675 38.1267 102.123 37.604C102.571 37.0813 102.953 36.652 103.271 36.316L103.495 36.12C103.625 35.9893 103.728 35.8773 103.803 35.784C103.877 35.6907 103.961 35.5973 104.055 35.504C104.484 35.056 104.82 34.7107 105.062 34.468C105.305 34.2253 105.585 33.964 105.903 33.684ZM98.4265 47.32C98.4078 47.32 98.3985 47.3293 98.3985 47.348C98.3985 47.348 98.3892 47.348 98.3705 47.348C98.4078 47.348 98.4265 47.3387 98.4265 47.32ZM98.9865 47.768C99.0052 47.768 99.0145 47.7493 99.0145 47.712C99.0145 47.7493 99.0052 47.768 98.9865 47.768ZM145.99 35.84C146.196 35.3733 146.429 34.9533 146.69 34.58C146.97 34.2067 147.26 33.908 147.558 33.684C147.857 33.4413 148.146 33.2827 148.426 33.208C148.725 33.1147 148.986 33.1147 149.21 33.208C149.714 33.4693 149.966 34.0013 149.966 34.804C149.966 35.5507 149.77 36.3813 149.378 37.296V37.352C149.266 37.632 149.108 37.94 148.902 38.276C148.753 38.5373 148.538 38.9573 148.258 39.536C147.978 40.096 147.558 40.9733 146.998 42.168C146.905 42.336 146.812 42.504 146.718 42.672C146.644 42.84 146.56 43.0267 146.466 43.232C146.354 43.4933 146.224 43.7827 146.074 44.1C145.944 44.3987 145.804 44.7067 145.654 45.024V44.996C145.225 45.948 144.74 47.012 144.198 48.188C143.676 49.364 143.097 50.68 142.462 52.136L142.49 52.08C142.472 52.136 142.453 52.2013 142.434 52.276C142.397 52.3507 142.36 52.4253 142.322 52.5L142.35 52.444C142.313 52.5373 142.276 52.6213 142.238 52.696C142.182 52.7707 142.136 52.8547 142.098 52.948C141.053 55.3373 139.858 58.128 138.514 61.32C137.152 64.5307 135.649 68.292 134.006 72.604C133.913 72.9027 133.81 73.2013 133.698 73.5C133.568 73.7987 133.446 74.1067 133.334 74.424C134.342 72.2587 135.434 69.9907 136.61 67.62C137.786 65.268 138.99 62.972 140.222 60.732C140.838 59.668 141.464 58.604 142.098 57.54C142.733 56.4947 143.349 55.496 143.946 54.544C144.562 53.592 145.141 52.7053 145.682 51.884C146.242 51.0813 146.746 50.372 147.194 49.756C148.109 48.524 149.07 47.292 150.078 46.06C151.086 44.828 152.085 43.6987 153.074 42.672C153.653 42.0747 154.26 41.4773 154.894 40.88C155.548 40.2827 156.248 39.6853 156.994 39.088L156.966 39.116C157.75 38.4813 158.628 37.828 159.598 37.156C160.569 36.484 161.633 35.868 162.79 35.308C163.444 34.9907 164.125 34.7013 164.834 34.44C165.544 34.1787 166.281 33.964 167.046 33.796C168.054 33.572 169.212 33.46 170.518 33.46C170.836 33.46 171.162 33.4693 171.498 33.488C171.834 33.488 172.133 33.5067 172.394 33.544L172.506 33.6C172.618 33.6 172.777 33.6373 172.982 33.712C173.206 33.768 173.402 33.8427 173.57 33.936L173.542 33.908C173.748 34.02 173.916 34.1693 174.046 34.356C174.177 34.524 174.28 34.7107 174.354 34.916V34.888C174.429 35.056 174.476 35.2147 174.494 35.364C174.513 35.4947 174.522 35.6347 174.522 35.784C174.522 36.1387 174.476 36.4747 174.382 36.792C174.289 37.0907 174.177 37.3893 174.046 37.688C174.028 37.7067 174.028 37.716 174.046 37.716C174.065 37.6973 174.065 37.7067 174.046 37.744C173.785 38.304 173.533 38.808 173.29 39.256C173.066 39.6853 172.833 40.096 172.59 40.488C172.049 41.3467 171.452 42.224 170.798 43.12C170.164 44.016 169.501 44.9307 168.81 45.864L167.97 46.956C167.858 47.0867 167.793 47.1707 167.774 47.208C167.756 47.2267 167.746 47.236 167.746 47.236C167.746 47.236 167.737 47.2453 167.718 47.264C167.7 47.2827 167.644 47.3573 167.55 47.488C168.092 47.3947 168.624 47.3107 169.146 47.236C169.669 47.1427 170.182 47.0493 170.686 46.956C172.572 46.6013 174.382 46.2093 176.118 45.78C177.873 45.332 179.441 44.912 180.822 44.52C183.697 43.6053 186.329 42.6813 188.718 41.748C191.126 40.796 193.152 39.956 194.794 39.228C196.549 38.4253 198.024 37.716 199.218 37.1C200.432 36.4653 201.449 35.9333 202.27 35.504L202.242 35.532C202.541 35.364 202.812 35.2147 203.054 35.084C203.297 34.9533 203.521 34.832 203.726 34.72C204.1 34.5147 204.389 34.356 204.594 34.244C204.818 34.1133 204.986 34.0107 205.098 33.936C205.621 33.6373 206.125 33.4133 206.61 33.264C207.114 33.1147 207.562 33.04 207.954 33.04C208.589 33.04 209.028 33.2267 209.27 33.6C209.401 33.824 209.429 34.0853 209.354 34.384C209.298 34.6827 209.158 35 208.934 35.336C208.729 35.6533 208.449 35.98 208.094 36.316C207.758 36.6333 207.376 36.9133 206.946 37.156C206.741 37.2867 206.47 37.4453 206.134 37.632C205.798 37.8 205.36 38.0147 204.818 38.276C204.688 38.332 204.557 38.3973 204.426 38.472C204.389 38.4907 204.342 38.5093 204.286 38.528C204.249 38.5467 204.212 38.5653 204.174 38.584L204.258 38.556C203.698 38.836 202.989 39.1813 202.13 39.592C201.272 39.984 200.208 40.4693 198.938 41.048C197.389 41.7573 195.485 42.5787 193.226 43.512C190.968 44.4267 188.242 45.4067 185.05 46.452C183.352 46.9933 181.55 47.5253 179.646 48.048C177.742 48.552 175.726 49.0187 173.598 49.448C172.59 49.6533 171.442 49.8493 170.154 50.036C168.885 50.2227 167.634 50.3907 166.402 50.54C165.6 50.6333 164.881 50.708 164.246 50.764C163.612 50.8387 163.098 50.8387 162.706 50.764C162.314 50.708 162.062 50.5587 161.95 50.316C161.857 50.092 161.95 49.728 162.23 49.224C162.51 48.72 162.996 48.0667 163.686 47.264C164.396 46.4427 165.357 45.416 166.57 44.184C167.018 43.736 167.438 43.26 167.83 42.756C168.222 42.2333 168.586 41.7107 168.922 41.188C169.277 40.6653 169.604 40.152 169.902 39.648C170.201 39.144 170.481 38.6773 170.742 38.248L170.714 38.276L170.798 38.108C170.854 37.996 170.92 37.8747 170.994 37.744C171.069 37.5947 171.144 37.4547 171.218 37.324C171.293 37.1747 171.377 37.0253 171.47 36.876C171.508 36.7827 171.545 36.6893 171.582 36.596C171.62 36.484 171.657 36.372 171.694 36.26C171.694 36.26 171.685 36.2507 171.666 36.232H171.638C171.601 36.232 171.564 36.232 171.526 36.232C171.508 36.2133 171.489 36.204 171.47 36.204C171.302 36.1853 171.134 36.176 170.966 36.176C170.817 36.1573 170.668 36.1573 170.518 36.176C169.585 36.176 168.698 36.2693 167.858 36.456C167.037 36.624 166.253 36.848 165.506 37.128C164.778 37.3893 164.088 37.6973 163.434 38.052C162.781 38.4067 162.165 38.7707 161.586 39.144C160.41 39.9467 159.374 40.7493 158.478 41.552C157.601 42.336 156.808 43.0827 156.098 43.792H156.126C155.342 44.632 154.642 45.4067 154.026 46.116C153.429 46.8253 152.897 47.4787 152.43 48.076C151.982 48.692 151.506 49.3453 151.002 50.036C150.517 50.7267 150.022 51.436 149.518 52.164C149.014 52.9107 148.51 53.6573 148.006 54.404C147.521 55.1693 147.054 55.916 146.606 56.644C145.617 58.2493 144.488 60.144 143.218 62.328C141.968 64.5307 140.605 67.06 139.13 69.916C138.234 71.6147 137.422 73.2013 136.694 74.676C135.966 76.1507 135.294 77.532 134.678 78.82L134.342 79.492C134.286 79.5853 134.23 79.6973 134.174 79.828C134.118 79.9587 134.072 80.0707 134.034 80.164C133.941 80.3693 133.829 80.612 133.698 80.892C133.549 81.172 133.428 81.4147 133.334 81.62C133.11 82.068 132.896 82.516 132.69 82.964C132.466 83.4307 132.252 83.8507 132.046 84.224C132.009 84.2613 131.99 84.2987 131.99 84.336C131.972 84.392 131.944 84.4387 131.906 84.476C131.869 84.532 131.832 84.5973 131.794 84.672C131.682 84.8773 131.561 85.1013 131.43 85.344C131.281 85.5867 131.132 85.82 130.982 86.044L130.926 86.1C130.908 86.1187 130.898 86.1373 130.898 86.156C130.88 86.1933 130.861 86.2213 130.842 86.24C130.805 86.296 130.749 86.3613 130.674 86.436C130.581 86.5293 130.488 86.6227 130.394 86.716C130.32 86.7907 130.226 86.8653 130.114 86.94C130.058 86.996 129.993 87.0427 129.918 87.08C129.844 87.1173 129.722 87.1547 129.554 87.192L129.61 87.164C129.461 87.2013 129.256 87.192 128.994 87.136C128.733 87.08 128.528 87.0053 128.378 86.912C128.341 86.8933 128.294 86.828 128.238 86.716C128.182 86.6227 128.126 86.52 128.07 86.408C128.014 86.296 127.958 86.184 127.902 86.072C127.846 85.9787 127.809 85.9133 127.79 85.876L128.35 81.172C128.425 80.6307 128.556 80.08 128.742 79.52C128.929 78.96 129.106 78.4187 129.274 77.896C129.592 76.8693 129.956 75.768 130.366 74.592C130.758 73.416 131.169 72.2493 131.598 71.092C132.961 67.4333 134.23 64.1853 135.406 61.348C136.564 58.5107 137.581 56.0187 138.458 53.872L138.43 53.9C138.486 53.7507 138.552 53.6013 138.626 53.452C138.682 53.3027 138.738 53.1533 138.794 53.004C139 52.5187 139.196 52.052 139.382 51.604C139.569 51.156 139.746 50.7173 139.914 50.288C140.12 49.8027 140.316 49.3453 140.502 48.916C140.689 48.468 140.866 48.0387 141.034 47.628L141.006 47.656C141.174 47.2267 141.352 46.8067 141.538 46.396C141.725 45.9667 141.902 45.556 142.07 45.164C142.22 44.8467 142.35 44.548 142.462 44.268C142.574 43.9693 142.677 43.6893 142.77 43.428C142.976 42.924 143.162 42.4667 143.33 42.056C143.498 41.6267 143.657 41.2253 143.806 40.852C143.862 40.7213 143.928 40.5813 144.002 40.432C144.077 40.264 144.133 40.1147 144.17 39.984C144.469 39.2747 144.73 38.6773 144.954 38.192C145.178 37.688 145.412 37.1653 145.654 36.624C145.748 36.3627 145.85 36.1107 145.962 35.868L145.99 35.84ZM204.615 35.84C204.821 35.3733 205.054 34.9533 205.315 34.58C205.595 34.2067 205.885 33.908 206.183 33.684C206.482 33.4413 206.771 33.2827 207.051 33.208C207.35 33.1147 207.611 33.1147 207.835 33.208C208.339 33.4693 208.591 34.0013 208.591 34.804C208.591 35.5507 208.395 36.3813 208.003 37.296V37.352C207.891 37.632 207.733 37.94 207.527 38.276C207.378 38.5373 207.163 38.9573 206.883 39.536C206.603 40.096 206.183 40.9733 205.623 42.168C205.53 42.336 205.437 42.504 205.343 42.672C205.269 42.84 205.185 43.0267 205.091 43.232C204.979 43.4933 204.849 43.7827 204.699 44.1C204.569 44.3987 204.429 44.7067 204.279 45.024V44.996C203.85 45.948 203.365 47.012 202.823 48.188C202.301 49.364 201.722 50.68 201.087 52.136L201.115 52.08C201.097 52.136 201.078 52.2013 201.059 52.276C201.022 52.3507 200.985 52.4253 200.947 52.5L200.975 52.444C200.938 52.5373 200.901 52.6213 200.863 52.696C200.807 52.7707 200.761 52.8547 200.723 52.948C199.678 55.3373 198.483 58.128 197.139 61.32C195.777 64.5307 194.274 68.292 192.631 72.604C192.538 72.9027 192.435 73.2013 192.323 73.5C192.193 73.7987 192.071 74.1067 191.959 74.424C192.967 72.2587 194.059 69.9907 195.235 67.62C196.411 65.268 197.615 62.972 198.847 60.732C199.463 59.668 200.089 58.604 200.723 57.54C201.358 56.4947 201.974 55.496 202.571 54.544C203.187 53.592 203.766 52.7053 204.307 51.884C204.867 51.0813 205.371 50.372 205.819 49.756C206.734 48.524 207.695 47.292 208.703 46.06C209.711 44.828 210.71 43.6987 211.699 42.672C212.278 42.0747 212.885 41.4773 213.519 40.88C214.173 40.2827 214.873 39.6853 215.619 39.088L215.591 39.116C216.375 38.4813 217.253 37.828 218.223 37.156C219.194 36.484 220.258 35.868 221.415 35.308C222.069 34.9907 222.75 34.7013 223.459 34.44C224.169 34.1787 224.906 33.964 225.671 33.796C226.679 33.572 227.837 33.46 229.143 33.46C229.461 33.46 229.787 33.4693 230.123 33.488C230.459 33.488 230.758 33.5067 231.019 33.544L231.131 33.6C231.243 33.6 231.402 33.6373 231.607 33.712C231.831 33.768 232.027 33.8427 232.195 33.936L232.167 33.908C232.373 34.02 232.541 34.1693 232.671 34.356C232.802 34.524 232.905 34.7107 232.979 34.916V34.888C233.054 35.056 233.101 35.2147 233.119 35.364C233.138 35.4947 233.147 35.6347 233.147 35.784C233.147 36.1387 233.101 36.4747 233.007 36.792C232.914 37.0907 232.802 37.3893 232.671 37.688C232.653 37.7067 232.653 37.716 232.671 37.716C232.69 37.6973 232.69 37.7067 232.671 37.744C232.41 38.304 232.158 38.808 231.915 39.256C231.691 39.6853 231.458 40.096 231.215 40.488C230.674 41.3467 230.077 42.224 229.423 43.12C228.789 44.016 228.126 44.9307 227.435 45.864L226.595 46.956C226.483 47.0867 226.418 47.1707 226.399 47.208C226.381 47.2267 226.371 47.236 226.371 47.236C226.371 47.236 226.362 47.2453 226.343 47.264C226.325 47.2827 226.269 47.3573 226.175 47.488C226.717 47.3947 227.249 47.3107 227.771 47.236C228.294 47.1427 228.807 47.0493 229.311 46.956C231.197 46.6013 233.007 46.2093 234.743 45.78C236.498 45.332 238.066 44.912 239.447 44.52C242.322 43.6053 244.954 42.6813 247.343 41.748C249.751 40.796 251.777 39.956 253.419 39.228C255.174 38.4253 256.649 37.716 257.843 37.1C259.057 36.4653 260.074 35.9333 260.895 35.504L260.867 35.532C261.166 35.364 261.437 35.2147 261.679 35.084C261.922 34.9533 262.146 34.832 262.351 34.72C262.725 34.5147 263.014 34.356 263.219 34.244C263.443 34.1133 263.611 34.0107 263.723 33.936C264.246 33.6373 264.75 33.4133 265.235 33.264C265.739 33.1147 266.187 33.04 266.579 33.04C267.214 33.04 267.653 33.2267 267.895 33.6C268.026 33.824 268.054 34.0853 267.979 34.384C267.923 34.6827 267.783 35 267.559 35.336C267.354 35.6533 267.074 35.98 266.719 36.316C266.383 36.6333 266.001 36.9133 265.571 37.156C265.366 37.2867 265.095 37.4453 264.759 37.632C264.423 37.8 263.985 38.0147 263.443 38.276C263.313 38.332 263.182 38.3973 263.051 38.472C263.014 38.4907 262.967 38.5093 262.911 38.528C262.874 38.5467 262.837 38.5653 262.799 38.584L262.883 38.556C262.323 38.836 261.614 39.1813 260.755 39.592C259.897 39.984 258.833 40.4693 257.563 41.048C256.014 41.7573 254.11 42.5787 251.851 43.512C249.593 44.4267 246.867 45.4067 243.675 46.452C241.977 46.9933 240.175 47.5253 238.271 48.048C236.367 48.552 234.351 49.0187 232.223 49.448C231.215 49.6533 230.067 49.8493 228.779 50.036C227.51 50.2227 226.259 50.3907 225.027 50.54C224.225 50.6333 223.506 50.708 222.871 50.764C222.237 50.8387 221.723 50.8387 221.331 50.764C220.939 50.708 220.687 50.5587 220.575 50.316C220.482 50.092 220.575 49.728 220.855 49.224C221.135 48.72 221.621 48.0667 222.311 47.264C223.021 46.4427 223.982 45.416 225.195 44.184C225.643 43.736 226.063 43.26 226.455 42.756C226.847 42.2333 227.211 41.7107 227.547 41.188C227.902 40.6653 228.229 40.152 228.527 39.648C228.826 39.144 229.106 38.6773 229.367 38.248L229.339 38.276L229.423 38.108C229.479 37.996 229.545 37.8747 229.619 37.744C229.694 37.5947 229.769 37.4547 229.843 37.324C229.918 37.1747 230.002 37.0253 230.095 36.876C230.133 36.7827 230.17 36.6893 230.207 36.596C230.245 36.484 230.282 36.372 230.319 36.26C230.319 36.26 230.31 36.2507 230.291 36.232H230.263C230.226 36.232 230.189 36.232 230.151 36.232C230.133 36.2133 230.114 36.204 230.095 36.204C229.927 36.1853 229.759 36.176 229.591 36.176C229.442 36.1573 229.293 36.1573 229.143 36.176C228.21 36.176 227.323 36.2693 226.483 36.456C225.662 36.624 224.878 36.848 224.131 37.128C223.403 37.3893 222.713 37.6973 222.059 38.052C221.406 38.4067 220.79 38.7707 220.211 39.144C219.035 39.9467 217.999 40.7493 217.103 41.552C216.226 42.336 215.433 43.0827 214.723 43.792H214.751C213.967 44.632 213.267 45.4067 212.651 46.116C212.054 46.8253 211.522 47.4787 211.055 48.076C210.607 48.692 210.131 49.3453 209.627 50.036C209.142 50.7267 208.647 51.436 208.143 52.164C207.639 52.9107 207.135 53.6573 206.631 54.404C206.146 55.1693 205.679 55.916 205.231 56.644C204.242 58.2493 203.113 60.144 201.843 62.328C200.593 64.5307 199.23 67.06 197.755 69.916C196.859 71.6147 196.047 73.2013 195.319 74.676C194.591 76.1507 193.919 77.532 193.303 78.82L192.967 79.492C192.911 79.5853 192.855 79.6973 192.799 79.828C192.743 79.9587 192.697 80.0707 192.659 80.164C192.566 80.3693 192.454 80.612 192.323 80.892C192.174 81.172 192.053 81.4147 191.959 81.62C191.735 82.068 191.521 82.516 191.315 82.964C191.091 83.4307 190.877 83.8507 190.671 84.224C190.634 84.2613 190.615 84.2987 190.615 84.336C190.597 84.392 190.569 84.4387 190.531 84.476C190.494 84.532 190.457 84.5973 190.419 84.672C190.307 84.8773 190.186 85.1013 190.055 85.344C189.906 85.5867 189.757 85.82 189.607 86.044L189.551 86.1C189.533 86.1187 189.523 86.1373 189.523 86.156C189.505 86.1933 189.486 86.2213 189.467 86.24C189.43 86.296 189.374 86.3613 189.299 86.436C189.206 86.5293 189.113 86.6227 189.019 86.716C188.945 86.7907 188.851 86.8653 188.739 86.94C188.683 86.996 188.618 87.0427 188.543 87.08C188.469 87.1173 188.347 87.1547 188.179 87.192L188.235 87.164C188.086 87.2013 187.881 87.192 187.619 87.136C187.358 87.08 187.153 87.0053 187.003 86.912C186.966 86.8933 186.919 86.828 186.863 86.716C186.807 86.6227 186.751 86.52 186.695 86.408C186.639 86.296 186.583 86.184 186.527 86.072C186.471 85.9787 186.434 85.9133 186.415 85.876L186.975 81.172C187.05 80.6307 187.181 80.08 187.367 79.52C187.554 78.96 187.731 78.4187 187.899 77.896C188.217 76.8693 188.581 75.768 188.991 74.592C189.383 73.416 189.794 72.2493 190.223 71.092C191.586 67.4333 192.855 64.1853 194.031 61.348C195.189 58.5107 196.206 56.0187 197.083 53.872L197.055 53.9C197.111 53.7507 197.177 53.6013 197.251 53.452C197.307 53.3027 197.363 53.1533 197.419 53.004C197.625 52.5187 197.821 52.052 198.007 51.604C198.194 51.156 198.371 50.7173 198.539 50.288C198.745 49.8027 198.941 49.3453 199.127 48.916C199.314 48.468 199.491 48.0387 199.659 47.628L199.631 47.656C199.799 47.2267 199.977 46.8067 200.163 46.396C200.35 45.9667 200.527 45.556 200.695 45.164C200.845 44.8467 200.975 44.548 201.087 44.268C201.199 43.9693 201.302 43.6893 201.395 43.428C201.601 42.924 201.787 42.4667 201.955 42.056C202.123 41.6267 202.282 41.2253 202.431 40.852C202.487 40.7213 202.553 40.5813 202.627 40.432C202.702 40.264 202.758 40.1147 202.795 39.984C203.094 39.2747 203.355 38.6773 203.579 38.192C203.803 37.688 204.037 37.1653 204.279 36.624C204.373 36.3627 204.475 36.1107 204.587 35.868L204.615 35.84ZM307.48 34.216C307.947 33.9547 308.404 33.7587 308.852 33.628C309.3 33.4973 309.702 33.432 310.056 33.432C310.747 33.432 311.214 33.656 311.456 34.104C311.568 34.328 311.596 34.5893 311.54 34.888C311.503 35.168 311.391 35.4573 311.204 35.756C311.018 36.036 310.766 36.3253 310.448 36.624C310.131 36.904 309.776 37.1653 309.384 37.408C309.31 37.4453 309.235 37.492 309.16 37.548C309.086 37.604 309.011 37.6507 308.936 37.688C308.899 37.7067 308.852 37.7253 308.796 37.744C308.759 37.7627 308.722 37.7813 308.684 37.8C308.535 37.856 308.367 37.9307 308.18 38.024C308.012 38.1173 307.788 38.2387 307.508 38.388C307.247 38.5373 306.92 38.724 306.528 38.948C306.155 39.172 305.698 39.452 305.156 39.788H305.184C304.288 40.348 303.168 41.0853 301.824 42C300.48 42.896 298.884 44.072 297.036 45.528H297.064C296.168 46.256 295.17 47.1053 294.068 48.076C292.967 49.028 291.8 50.092 290.568 51.268C289.355 52.4627 288.086 53.76 286.76 55.16C285.454 56.56 284.138 58.0533 282.812 59.64C281.319 61.5067 279.807 63.5973 278.276 65.912C276.746 68.2267 275.243 70.7747 273.768 73.556C272.294 76.3373 270.875 79.352 269.512 82.6C268.15 85.848 266.89 89.3387 265.732 93.072V93.044C265.695 93.212 265.648 93.3427 265.592 93.436C265.555 93.548 265.508 93.6507 265.452 93.744C265.434 93.7813 265.396 93.8373 265.34 93.912C265.284 94.0053 265.238 94.0893 265.2 94.164L264.808 94.556L264.752 94.5C264.678 94.556 264.603 94.6027 264.528 94.64C264.472 94.696 264.426 94.7427 264.388 94.78C264.183 94.8547 263.959 94.9013 263.716 94.92C263.492 94.9387 263.287 94.92 263.1 94.864C262.895 94.7893 262.708 94.696 262.54 94.584C262.372 94.472 262.251 94.36 262.176 94.248L262.148 94.192C261.962 94.0053 261.85 93.7907 261.812 93.548C261.756 93.38 261.728 93.2773 261.728 93.24C261.71 93.184 261.7 93.1093 261.7 93.016C261.7 92.9227 261.7 92.848 261.7 92.792V92.008C261.7 91.9707 261.7 91.9333 261.7 91.896C261.719 91.8587 261.728 91.8213 261.728 91.784C261.766 91.4667 261.803 91.1493 261.84 90.832C261.878 90.5333 261.915 90.244 261.952 89.964C262.046 89.4787 262.148 88.9933 262.26 88.508C262.391 88.0413 262.503 87.5933 262.596 87.164L262.568 87.192C262.587 87.1173 262.596 87.052 262.596 86.996C262.615 86.94 262.634 86.8747 262.652 86.8C262.895 85.848 263.128 84.952 263.352 84.112C263.595 83.2907 263.828 82.516 264.052 81.788C264.5 80.3507 264.92 79.0067 265.312 77.756C265.723 76.5053 266.162 75.208 266.628 73.864L267.048 72.688C267.123 72.4827 267.188 72.2773 267.244 72.072C267.319 71.8853 267.394 71.6893 267.468 71.484C267.618 71.0733 267.767 70.644 267.916 70.196C268.066 69.7667 268.224 69.3093 268.392 68.824C268.822 67.592 269.316 66.192 269.876 64.624C270.436 63.0747 271.052 61.3387 271.724 59.416C272.415 57.512 273.171 55.412 273.992 53.116C274.832 50.82 275.747 48.3187 276.736 45.612C277.091 44.6413 277.446 43.6613 277.8 42.672C278.174 41.6827 278.528 40.74 278.864 39.844C278.23 40.3107 277.604 40.7587 276.988 41.188C276.372 41.6173 275.775 42.028 275.196 42.42C273.964 43.2413 272.788 44.0067 271.668 44.716C270.548 45.4067 269.466 46.0413 268.42 46.62C267.898 46.9 267.366 47.1613 266.824 47.404C266.283 47.6467 265.76 47.8707 265.256 48.076C264.976 48.188 264.687 48.2813 264.388 48.356C264.09 48.4307 263.782 48.496 263.464 48.552H263.268C263.119 48.5707 262.96 48.5893 262.792 48.608C262.643 48.608 262.466 48.5893 262.26 48.552C261.999 48.5333 261.728 48.4587 261.448 48.328C261.187 48.1973 260.935 48.0107 260.692 47.768L260.664 47.74C260.534 47.6467 260.403 47.488 260.272 47.264L260.16 47.068C260.16 47.068 260.142 47.0307 260.104 46.956C260.048 46.9 260.011 46.8347 259.992 46.76C259.955 46.648 259.936 46.564 259.936 46.508C259.899 46.3773 259.862 46.2653 259.824 46.172C259.787 46.0787 259.759 46.004 259.74 45.948C259.703 45.8733 259.684 45.8173 259.684 45.78C259.647 45.5 259.628 45.192 259.628 44.856C259.628 44.52 259.647 44.2213 259.684 43.96C259.722 43.5307 259.796 43.12 259.908 42.728C260.02 42.3173 260.123 41.9347 260.216 41.58C260.366 41.076 260.543 40.5907 260.748 40.124C260.972 39.6387 261.168 39.2093 261.336 38.836C261.355 38.7987 261.364 38.7613 261.364 38.724C261.383 38.6867 261.402 38.6493 261.42 38.612L261.392 38.78C261.392 38.7613 261.392 38.752 261.392 38.752C261.411 38.7333 261.42 38.7147 261.42 38.696C261.42 38.64 261.42 38.584 261.42 38.528C261.42 38.472 261.458 38.3973 261.532 38.304C261.924 37.52 262.242 36.9133 262.484 36.484C262.746 36.036 262.923 35.728 263.016 35.56C263.278 35.1307 263.567 34.7573 263.884 34.44C264.202 34.1227 264.519 33.88 264.836 33.712C265.154 33.5253 265.462 33.4227 265.76 33.404C266.059 33.3667 266.311 33.4133 266.516 33.544C266.722 33.6933 266.862 33.88 266.936 34.104C267.03 34.3093 267.076 34.5427 267.076 34.804C267.076 35.1587 266.992 35.5693 266.824 36.036C266.675 36.5027 266.47 36.9787 266.208 37.464L266.18 37.492V37.464C266.162 37.5013 266.143 37.5293 266.124 37.548C266.124 37.548 266.115 37.5667 266.096 37.604C266.04 37.6973 265.984 37.8 265.928 37.912C265.872 38.0053 265.826 38.0893 265.788 38.164C265.639 38.3693 265.434 38.7147 265.172 39.2C265.023 39.4427 264.864 39.7227 264.696 40.04C264.528 40.3387 264.37 40.6747 264.22 41.048C264.052 41.4213 263.866 41.8693 263.66 42.392C263.474 42.896 263.306 43.484 263.156 44.156C263.119 44.2867 263.091 44.4267 263.072 44.576C263.072 44.7067 263.072 44.8093 263.072 44.884V45.22C263.222 45.2013 263.38 45.1827 263.548 45.164C263.716 45.1267 263.903 45.0613 264.108 44.968C265.116 44.6133 266.18 44.1373 267.3 43.54C268.439 42.924 269.624 42.2427 270.856 41.496C271.416 41.16 272.051 40.768 272.76 40.32C273.47 39.8533 274.207 39.3587 274.972 38.836C275.738 38.3133 276.522 37.772 277.324 37.212C278.127 36.652 278.902 36.1013 279.648 35.56L279.984 35.308C280.078 35.2333 280.171 35.1773 280.264 35.14C280.358 35.084 280.451 35.0187 280.544 34.944C280.563 34.944 280.591 34.9253 280.628 34.888C280.666 34.8693 280.694 34.8507 280.712 34.832C280.731 34.7947 280.759 34.7573 280.796 34.72L280.992 34.356L281.216 34.412L281.272 34.356L281.44 34.244C281.478 34.2067 281.524 34.1693 281.58 34.132C281.636 34.076 281.683 34.0293 281.72 33.992L282.14 33.572C282.234 33.6653 282.383 33.796 282.588 33.964C282.794 34.1133 282.924 34.2067 282.98 34.244C283.148 34.3933 283.26 34.4867 283.316 34.524C283.372 34.5613 283.372 34.5613 283.316 34.524H283.26C283.335 34.5613 283.419 34.6173 283.512 34.692C283.606 34.7667 283.736 34.8507 283.904 34.944C283.811 35.2053 283.708 35.4667 283.596 35.728C283.484 35.9893 283.41 36.1573 283.372 36.232C283.372 36.2507 283.363 36.2693 283.344 36.288C283.344 36.3067 283.344 36.3253 283.344 36.344C283.326 36.3813 283.307 36.4373 283.288 36.512C283.27 36.568 283.251 36.6147 283.232 36.652C283.214 36.708 283.186 36.7733 283.148 36.848C283.111 36.9227 283.083 36.9973 283.064 37.072C283.027 37.1653 282.99 37.2587 282.952 37.352C282.934 37.4267 282.906 37.5107 282.868 37.604C282.738 37.94 282.607 38.2853 282.476 38.64C282.346 38.976 282.206 39.3213 282.056 39.676C281.646 40.7213 281.207 41.8413 280.74 43.036C280.292 44.212 279.844 45.3973 279.396 46.592C277.922 50.4747 276.634 53.9093 275.532 56.896C274.45 59.8827 273.507 62.5427 272.704 64.876C271.902 67.2093 271.211 69.2627 270.632 71.036C270.054 72.828 269.54 74.452 269.092 75.908C269.186 75.7213 269.279 75.5347 269.372 75.348C269.466 75.1613 269.559 74.984 269.652 74.816C270.343 73.5093 271.006 72.296 271.64 71.176C272.275 70.056 272.891 69.02 273.488 68.068C274.086 67.1347 274.664 66.2387 275.224 65.38C275.784 64.5213 276.363 63.6627 276.96 62.804C277.558 61.964 278.174 61.1053 278.808 60.228C279.462 59.3693 280.171 58.4547 280.936 57.484C283.4 54.46 285.696 51.9027 287.824 49.812C289.952 47.74 291.856 45.9667 293.536 44.492C295.216 43.036 296.672 41.8413 297.904 40.908C299.136 39.956 300.191 39.1533 301.068 38.5C301.946 37.8653 302.683 37.3427 303.28 36.932C303.878 36.5213 304.41 36.1667 304.876 35.868C305.343 35.5507 305.772 35.2707 306.164 35.028C306.556 34.7667 306.995 34.496 307.48 34.216ZM307.969 49.812C307.764 49.6067 307.624 49.3733 307.549 49.112C307.474 48.8507 307.437 48.58 307.437 48.3C307.437 48.02 307.446 47.7587 307.465 47.516C307.502 47.2733 307.54 47.096 307.577 46.984C307.652 46.928 307.838 46.9 308.137 46.9C308.436 46.9 308.762 46.9373 309.117 47.012C309.49 47.068 309.854 47.1707 310.209 47.32C310.582 47.4507 310.881 47.6373 311.105 47.88C311.292 48.0853 311.385 48.3467 311.385 48.664C311.385 48.9627 311.329 49.252 311.217 49.532C311.124 49.812 311.04 50.0267 310.965 50.176C310.872 50.232 310.704 50.2787 310.461 50.316C310.237 50.3533 309.966 50.372 309.649 50.372C309.332 50.372 309.024 50.3347 308.725 50.26C308.445 50.1853 308.202 50.0453 307.997 49.84L307.969 49.812ZM319.591 35.56C319.087 35.8773 318.667 36.036 318.331 36.036C317.883 36.036 317.621 35.8773 317.547 35.56C317.472 35.2427 317.519 34.8227 317.687 34.3C317.873 33.7587 318.153 33.1333 318.527 32.424C318.9 31.7147 319.311 30.968 319.759 30.184L319.731 30.212C319.824 30.0067 319.927 29.8107 320.039 29.624C320.169 29.4373 320.281 29.2413 320.375 29.036C320.767 28.308 321.14 27.5893 321.495 26.88C321.849 26.1707 322.129 25.5733 322.335 25.088C322.428 24.8267 322.512 24.5747 322.587 24.332C322.68 24.0893 322.745 23.912 322.783 23.8H322.755C322.829 23.3893 322.913 23.1187 323.007 22.988C323.007 22.988 323.016 22.9693 323.035 22.932C323.035 22.9133 323.044 22.8947 323.063 22.876C323.081 22.82 323.1 22.7547 323.119 22.68C323.156 22.5867 323.193 22.4933 323.231 22.4L323.623 22.008C323.94 21.784 324.323 21.7093 324.771 21.784C325.237 21.84 325.629 22.0453 325.947 22.4V22.372C326.208 22.6333 326.376 22.9413 326.451 23.296C326.525 23.6507 326.535 24.0147 326.479 24.388C326.404 24.7053 326.283 25.004 326.115 25.284C325.947 25.564 325.713 25.816 325.415 26.04C325.247 26.1707 325.051 26.3947 324.827 26.712C324.621 27.0293 324.388 27.4027 324.127 27.832C323.828 28.3173 323.52 28.8213 323.203 29.344C322.904 29.8667 322.596 30.3987 322.279 30.94C321.961 31.4813 321.653 32.0133 321.355 32.536C321.075 33.04 320.832 33.4973 320.627 33.908C320.365 34.3933 320.132 34.8413 319.927 35.252L319.591 35.56ZM323.763 35.56C323.259 35.8773 322.839 36.036 322.503 36.036C322.055 36.036 321.793 35.8773 321.719 35.56C321.644 35.2427 321.691 34.8227 321.859 34.3C322.045 33.7587 322.325 33.1333 322.699 32.424C323.072 31.7147 323.483 30.968 323.931 30.184L323.903 30.212C323.996 30.0067 324.099 29.8107 324.211 29.624C324.341 29.4373 324.453 29.2413 324.547 29.036C324.939 28.308 325.312 27.5893 325.667 26.88C326.021 26.1707 326.301 25.5733 326.507 25.088C326.6 24.8267 326.684 24.5747 326.759 24.332C326.852 24.0893 326.917 23.912 326.955 23.8H326.927C327.001 23.3893 327.085 23.1187 327.179 22.988C327.179 22.988 327.188 22.9693 327.207 22.932C327.207 22.9133 327.216 22.8947 327.235 22.876C327.253 22.82 327.272 22.7547 327.291 22.68C327.328 22.5867 327.365 22.4933 327.403 22.4L327.795 22.008C328.112 21.784 328.495 21.7093 328.943 21.784C329.409 21.84 329.801 22.0453 330.119 22.4V22.372C330.38 22.6333 330.548 22.9413 330.623 23.296C330.697 23.6507 330.707 24.0147 330.651 24.388C330.576 24.7053 330.455 25.004 330.287 25.284C330.119 25.564 329.885 25.816 329.587 26.04C329.419 26.1707 329.223 26.3947 328.999 26.712C328.793 27.0293 328.56 27.4027 328.299 27.832C328 28.3173 327.692 28.8213 327.375 29.344C327.076 29.8667 326.768 30.3987 326.451 30.94C326.133 31.4813 325.825 32.0133 325.527 32.536C325.247 33.04 325.004 33.4973 324.799 33.908C324.537 34.3933 324.304 34.8413 324.099 35.252L323.763 35.56Z" fill="white"/>
</svg>
